HIERARCHY
ROOT Hips
{
	OFFSET 0.00000 0.00000 0.00000
	CHANNELS 6 Xposition Yposition Zposition Zrotation Yrotation Xrotation 
	JOINT LHipJoint
	{
		OFFSET 0 0 0
		CHANNELS 3 Zrotation Yrotation Xrotation
		JOINT LeftHip
		{
			OFFSET 2.36090 -1.39315 1.24752
			CHANNELS 3 Zrotation Yrotation Xrotation
			JOINT LeftKnee
			{
				OFFSET 2.06810 -5.68207 0.00000
				CHANNELS 3 Zrotation Yrotation Xrotation
				JOINT LeftAnkle
				{
					OFFSET 2.46631 -6.77613 0.00000
					CHANNELS 3 Zrotation Yrotation Xrotation
					JOINT LeftToe
					{
						OFFSET 0.26031 -0.71520 1.99545
						CHANNELS 3 Zrotation Yrotation Xrotation
						End Site
						{
							OFFSET 0.00000 -0.00000 1.05957
						}
					}
				}
			}
		}
	}
	JOINT RHipJoint
	{
		OFFSET 0 0 0
		CHANNELS 3 Zrotation Yrotation Xrotation
		JOINT RightHip
		{
			OFFSET -2.25243 -1.39315 1.24752
			CHANNELS 3 Zrotation Yrotation Xrotation
			JOINT RightKnee
			{
				OFFSET -2.17343 -5.97145 0.00000
				CHANNELS 3 Zrotation Yrotation Xrotation
				JOINT RightAnkle
				{
					OFFSET -2.52372 -6.93386 0.00000
					CHANNELS 3 Zrotation Yrotation Xrotation
					JOINT RightToe
					{
						OFFSET -0.22538 -0.61923 2.11447
						CHANNELS 3 Zrotation Yrotation Xrotation
						End Site
						{
							OFFSET -0.00000 -0.00000 1.10506
						}
					}
				}
			}
		}
	}
	JOINT lowerback
	{
		OFFSET 0 0 0
		CHANNELS 3 Zrotation Yrotation Xrotation
		JOINT Chest
		{
			OFFSET 0.01594 2.13103 0.08007
			CHANNELS 3 Zrotation Yrotation Xrotation
			JOINT Chest2
			{
				OFFSET 0.01393 2.09723 0.18338
				CHANNELS 3 Zrotation Yrotation Xrotation
				JOINT lowerneck
				{
					OFFSET 0 0 0
					CHANNELS 3 Zrotation Yrotation Xrotation
					JOINT Neck
					{
						OFFSET 0.05351 1.38915 0.32494
						CHANNELS 3 Zrotation Yrotation Xrotation
						JOINT Head
						{
							OFFSET 0.00711 1.45992 -0.21666
							CHANNELS 3 Zrotation Yrotation Xrotation
							End Site
							{
								OFFSET -0.00433 1.47702 -0.11056
							}
						}
					}
				}
				JOINT LeftCollar
				{
					OFFSET 0 0 0
					CHANNELS 3 Zrotation Yrotation Xrotation
					JOINT LeftShoulder
					{
						OFFSET 2.87198 0.92249 0.11132
CHANNELS 3 Zrotation Xrotation Yrotation
						JOINT LeftElbow
						{
OFFSET 0 -5.527310 0.000000
CHANNELS 3 Zrotation Xrotation Yrotation
							JOINT LeftWrist
							{
OFFSET 0 -3.110590 0.000000
CHANNELS 3 Zrotation Xrotation Yrotation
								JOINT lhand
								{
									OFFSET 0 0 0
CHANNELS 3 Zrotation Xrotation Yrotation
									JOINT LFingers
									{
OFFSET 0 -0.419630 0.000000
CHANNELS 3 Zrotation Xrotation Yrotation
										End Site
										{
OFFSET 0 -0.338310 0.000000
										}
									}
								}
								JOINT LThumb
								{
OFFSET 0 0.000000 0.000000
CHANNELS 3 Zrotation Xrotation Yrotation
									End Site
									{
OFFSET 0 -0.343480 0.343480
									}
								}
							}
						}
					}
				}
				JOINT RightCollar
				{
					OFFSET 0 0 0
					CHANNELS 3 Zrotation Yrotation Xrotation
					JOINT RightShoulder
					{
						OFFSET -2.94710 0.68072 0.32187
CHANNELS 3 Zrotation Xrotation Yrotation
						JOINT RightElbow
						{
OFFSET 0 -5.253960 -0.000000
CHANNELS 3 Zrotation Xrotation Yrotation
							JOINT RightWrist
							{
OFFSET 0 -3.105670 0.000000
CHANNELS 3 Zrotation Xrotation Yrotation
								JOINT rhand
								{
									OFFSET 0 0 0
CHANNELS 3 Zrotation Xrotation Yrotation
									JOINT RFingers
									{
OFFSET 0 -0.498680 0.000000
CHANNELS 3 Zrotation Xrotation Yrotation
										End Site
										{
OFFSET 0 -0.402040 0.000000
										}
									}
								}
								JOINT RThumb
								{
OFFSET 0 0.000000 0.000000
CHANNELS 3 Zrotation Xrotation Yrotation
									End Site
									{
OFFSET 0 -0.408180 0.408180
									}
								}
							}
						}
					}
				}
			}
		}
	}
}
MOTION
Frames: 5
Frame Time: 0.008333333333333333
10.569500 15.640400 1.407500 -6.230500 -35.947000 29.426100 0.000000 0.000000 0.000000 -0.861100 -15.626600 -44.812600 3.291800 11.153000 32.797700 0.151600 2.772100 -8.918800 4.200000 -12.421900 -37.241400 0.000000 0.000000 0.000000 16.241600 25.614600 -4.394300 -1.066300 -6.564700 18.432000 -0.550000 -12.145000 -23.179200 -1.767800 8.364600 -23.827200 4.810400 2.088400 -17.084000 -1.317100 1.895400 -6.488900 -3.756700 0.820900 2.823500 12.031700 9.227500 -21.827500 -2.772900 9.495000 20.913400 -1.393300 4.949100 11.111400 -0.000000 -0.000000 0.000000 19.631700 8.952900 -32.966700 16.122200 -25.686000 3.698800 35.051700 -43.699400 -18.413400 0.000000 0.000000 0.000000 -7.125000 0.000000 0.000000 7.157700 51.971000 -1.233800 -0.000000 -0.000000 0.000000 -59.286200 6.094000 18.772600 -146.048600 -44.048700 -105.920700 -8.111500 -23.217700 7.752200 0.000000 0.000000 0.000000 7.125000 0.000000 -0.000000 15.847100 37.368700 3.070100
10.497406 15.632659 1.139547 -6.790137 -35.644416 29.638825 0.000000 0.000000 0.000000 0.849812 -15.799452 -44.968856 3.153898 10.939973 32.077893 0.078451 3.666537 -7.894592 4.374681 -12.642924 -38.046310 0.000000 0.000000 0.000000 17.468737 25.444421 -4.519817 -0.979964 -6.301422 17.661614 -0.668816 -11.686761 -23.763157 -1.380258 7.432596 -21.004183 5.557811 1.606798 -17.234008 -0.651125 1.097069 -6.648040 -3.630546 0.408689 2.647464 12.720086 9.874211 -20.723303 -3.631548 10.575937 21.312409 -1.648666 5.406648 11.240406 0.000000 0.000000 0.000000 18.156068 9.185545 -30.423262 16.360701 -26.007254 3.802747 34.446651 -44.718757 -18.053305 0.000000 0.000000 0.000000 -7.125000 0.000000 0.000000 6.540437 51.431314 -1.039931 0.000000 0.000000 0.000000 -56.846913 4.053836 12.937824 -148.071835 -42.488595 -107.307271 -11.392898 -24.994368 8.086374 0.000000 0.000000 0.000000 7.125000 0.000000 0.000000 13.192884 37.916701 2.351257
10.431594 15.629190 0.869513 -6.902412 -35.862496 29.556876 0.000000 0.000000 0.000000 1.919241 -15.981471 -44.480729 2.890507 10.515464 30.662769 -0.020555 5.093390 -6.547255 4.608382 -12.928664 -39.102007 0.000000 0.000000 0.000000 18.091389 25.270018 -5.332158 -0.996192 -6.351895 17.808761 -0.829256 -10.973185 -24.446494 -1.044193 6.497965 -18.236534 5.839986 1.244472 -17.213436 -0.233978 0.554355 -6.809379 -3.453156 0.124689 2.405456 13.187688 10.396874 -19.654677 -4.189584 11.484412 21.656255 -1.793089 5.807314 11.322064 0.000000 0.000000 0.000000 17.083307 9.198965 -29.344544 16.630387 -26.367889 3.921712 33.632231 -46.042213 -17.932644 0.000000 0.000000 0.000000 -7.125000 0.000000 0.000000 5.698692 51.132935 -0.863419 0.000000 0.000000 0.000000 -53.944948 2.096713 7.810082 -150.039120 -40.859425 -108.615857 -16.158655 -26.363064 8.787365 0.000000 0.000000 0.000000 7.125000 0.000000 0.000000 9.298391 38.962498 1.398466
10.379384 15.634865 0.612363 -6.533361 -36.500589 29.061942 0.000000 0.000000 0.000000 2.275491 -16.278656 -43.165022 2.499400 9.836038 28.448064 -0.138311 6.919366 -4.807550 4.819806 -13.177957 -40.038311 0.000000 0.000000 0.000000 18.194099 25.364877 -6.526155 -1.120255 -6.723122 18.897866 -0.993077 -10.466277 -25.325075 -0.769327 5.599175 -15.626266 5.548449 0.798326 -16.979375 0.114913 0.012137 -6.901302 -3.019374 -0.149403 2.134069 13.700689 10.964191 -18.618727 -4.780893 12.456521 21.919921 -1.944591 6.237094 11.402259 0.000000 0.000000 0.000000 16.086822 9.047814 -29.341036 16.872901 -26.689904 4.030082 32.710243 -47.207443 -17.611465 0.000000 0.000000 0.000000 -7.125000 0.000000 0.000000 4.773396 50.589206 -0.659114 0.000000 0.000000 0.000000 -50.708062 -0.320812 3.650763 -151.829423 -39.271889 -109.768194 -22.113472 -26.606899 9.927605 0.000000 0.000000 0.000000 7.125000 0.000000 0.000000 4.317043 40.642455 0.469154
10.336665 15.645310 0.376185 -6.070273 -37.143816 28.409257 0.000000 0.000000 0.000000 2.457236 -16.685186 -41.448144 2.088677 9.047864 25.945607 -0.245609 8.751227 -2.970623 4.959248 -13.337811 -40.646479 0.000000 0.000000 0.000000 18.245831 25.576205 -7.510822 -1.261558 -7.119825 20.071045 -1.132581 -10.143601 -26.137631 -0.554545 4.769415 -13.252050 5.137770 0.281556 -16.690207 0.534250 -0.604064 -6.951111 -2.452878 -0.454210 1.886966 14.203634 11.539251 -17.443029 -5.473054 13.499264 22.049523 -2.126357 6.691764 11.431925 0.000000 0.000000 0.000000 15.073326 8.801821 -30.233586 17.132675 -27.032298 4.147491 32.293109 -47.926186 -16.569110 0.000000 0.000000 0.000000 -7.125000 0.000000 0.000000 4.439112 49.318831 -0.473685 0.000000 0.000000 0.000000 -47.256009 -2.989063 0.236830 -153.473135 -37.723701 -110.791683 -27.752025 -26.079077 10.940535 0.000000 0.000000 0.000000 7.125000 0.000000 0.000000 -0.592549 42.301499 -0.037082
